<?xml version="1.0" encoding="UTF-8" standalone="no"?><!DOCTYPE svg PUBLIC "-//W3C//DTD SVG 1.1//EN" "http://www.w3.org/Graphics/SVG/1.1/DTD/svg11.dtd"><svg width="100%" height="100%" viewBox="0 0 1022 135" version="1.1" xmlns="http://www.w3.org/2000/svg" xmlns:xlink="http://www.w3.org/1999/xlink" xml:space="preserve" xmlns:serif="http://www.serif.com/" style="fill-rule:evenodd;clip-rule:evenodd;stroke-linejoin:round;stroke-miterlimit:1.41421;"><g id="Logo---Expanded-Caps" serif:id="Logo - Expanded Caps"><g id="Lettering"><path d="M871.084,133.913l-25.173,0l-13.113,-37.44l0.001,0l-6.271,-18.339l0.005,0c-10.866,-34.832 -16.45,-52.821 -16.752,-53.968l-17.295,53.968l0.005,0l-6.157,18.291l-0.005,0l-13.221,37.488l-25.626,0l48.807,-132.747l26.713,0l48.082,132.747Z" style="fill-rule:nonzero;"/><path d="M135.113,133.098l0,-132.656l24.539,0l0,113.097l55.508,0l-0.725,19.559l-79.322,0Z" style="fill-rule:nonzero;"/><path d="M313.56,135c-17.386,0 -30.576,-4.331 -39.571,-12.994c-8.995,-8.663 -13.492,-20.872 -13.492,-36.628l0,-84.936l24.63,0l0,82.854c0,11.047 2.248,19.106 6.746,24.177c4.497,5.07 11.877,7.606 22.139,7.606c10.082,0 17.386,-2.551 21.914,-7.652c4.527,-5.101 6.791,-13.175 6.791,-24.222l0,-82.763l24.539,0l0,85.117c0,15.635 -4.588,27.784 -13.764,36.447c-9.175,8.663 -22.486,12.994 -39.932,12.994Z" style="fill-rule:nonzero;"/><path d="M533.388,133.098l-24.539,0l0,-59.039l-29.245,0l0,-19.378l29.245,0l0,-54.239l24.539,0l0,132.656Zm-84.484,0l-24.539,0l0,-132.656l24.539,0l0,54.239l0.008,0l0,19.378l-0.008,0l0,59.039Z" style="fill-rule:nonzero;"/><path d="M591.673,133.098l0,-132.656l26.079,0c4.709,7.364 14.277,22.215 28.705,44.551c14.427,22.335 23.211,35.918 26.35,40.747c0.905,1.389 2.46,3.728 4.663,7.018c2.204,3.29 3.758,5.629 4.664,7.018c-0.423,-20.706 -0.634,-31.452 -0.634,-32.236l0,-67.098l22.366,0l0,132.656l-26.441,0l-59.854,-93.267l-4.346,-7.153c0.483,15.937 0.724,27.135 0.724,33.594l0,66.826l-22.276,0Z" style="fill-rule:nonzero;"/><path d="M937.61,133.098l-24.268,0l0,-133.019l49.169,0c6.701,0 12.512,0.302 17.431,0.906c4.92,0.604 9.599,1.705 14.036,3.305c4.437,1.6 8.029,3.758 10.775,6.474c2.747,2.717 4.92,6.263 6.52,10.64c1.6,4.377 2.4,9.553 2.4,15.53c0,17.627 -7.999,29.217 -23.996,34.771c3.259,3.682 7.304,10.504 12.133,20.464l19.741,40.929l-26.804,0l-15.484,-34.681c-5.855,-12.435 -9.477,-19.8 -10.866,-22.094l-0.073,-0.004l0,-17.925c7.541,-0.388 13.089,-2.033 16.644,-4.935c4.105,-3.35 6.157,-8.738 6.157,-16.163c0,-6.52 -2.082,-11.319 -6.248,-14.398c-4.165,-3.079 -10.533,-4.618 -19.106,-4.618l-28.161,0l0,40.114l0.023,0l0,17.658l-0.023,-0.001l0,57.047Z" style="fill-rule:nonzero;"/></g><g id="Moon"><path d="M76.369,132.629c-3.166,0.463 -6.404,0.702 -9.698,0.702c-36.797,0 -66.671,-29.872 -66.671,-66.666c0,-36.793 29.874,-66.665 66.671,-66.665c3.384,0 6.71,0.253 9.958,0.74c-29.666,4.578 -52.512,32.388 -52.512,65.965c0,33.48 22.713,61.225 52.252,65.924Z" style="fill:#75ccff;"/></g></g></svg>